<?xml version="1.0" encoding="UTF-8" standalone="no" ?>
<!DOCTYPE svg PUBLIC "-//W3C//DTD SVG 1.1//EN" "http://www.w3.org/Graphics/SVG/1.1/DTD/svg11.dtd">
<svg xmlns="http://www.w3.org/2000/svg" xmlns:xlink="http://www.w3.org/1999/xlink" version="1.1" width="1080" height="1080" viewBox="0 0 1080 1080" xml:space="preserve">
<desc>Created with Fabric.js 5.2.4</desc>
<defs>
</defs>
<g transform="matrix(1 0 0 1 540 540)" id="db06bd80-e9dd-414b-b238-527f0f5908a9"  >
<rect style="stroke: none; stroke-width: 1; stroke-dasharray: none; stroke-linecap: butt; stroke-dashoffset: 0; stroke-linejoin: miter; stroke-miterlimit: 4; fill: rgb(255,255,255); fill-rule: nonzero; opacity: 1;" vector-effect="non-scaling-stroke"  x="-540" y="-540" rx="0" ry="0" width="1080" height="1080" />
</g>
<g transform="matrix(1 0 0 1 540 540)" id="78a33f31-e77c-4573-9f5e-e3ababdf0979"  >
</g>
<g transform="matrix(21.73 0 0 21.73 542.82 542.02)" id="52f8d4b4-3a37-4010-b9fa-3fec63639eae"  >
<path style="stroke: rgb(0,0,0); stroke-width: 0; stroke-dasharray: none; stroke-linecap: butt; stroke-dashoffset: 0; stroke-linejoin: miter; stroke-miterlimit: 4; fill: rgb(0,0,0); fill-rule: nonzero; opacity: 1;" vector-effect="non-scaling-stroke"  transform=" translate(-24.36, -16.92)" d="M 27.3764 16.4833 C 27.3781 16.5277 27.3798 16.5722 27.3798 16.6171 C 27.3798 18.5469 25.802 20.1171 23.8622 20.1171 C 21.9227 20.1171 20.3449 18.5469 20.3449 16.6171 C 20.3449 14.6873 21.9227 13.1171 23.8622 13.1171 C 24.5732 13.1171 25.2351 13.3287 25.789 13.6911 C 25.7542 13.8541 25.7351 14.0229 25.7351 14.1962 C 25.735 15.257 26.4219 16.1562 27.3764 16.4833 Z M 23.8622 24.9061 C 19.2615 24.9061 15.5318 21.195 15.5318 16.617 C 15.5318 12.0391 19.2615 8.32779 23.8622 8.32779 C 28.4632 8.32779 32.1927 12.0391 32.1927 16.617 C 32.1927 21.195 28.4632 24.9061 23.8622 24.9061 Z M 28.9665 16.617 C 28.9665 16.5717 28.9642 16.5269 28.963 16.4819 C 29.9154 16.1538 30.6004 15.2556 30.6004 14.1961 C 30.6004 12.8591 29.5114 11.7755 28.1679 11.7755 C 27.5742 11.7755 27.0306 11.9876 26.6083 12.3392 C 25.8147 11.8331 24.8727 11.5382 23.8622 11.5382 C 21.0477 11.5382 18.7582 13.8167 18.7582 16.6171 C 18.7582 19.4174 21.0477 21.6957 23.8622 21.6957 C 26.6765 21.6956 28.9665 19.4174 28.9665 16.617 Z M 3.09548 16.9127 C 4.82465 14.6542 12.2484 6.03083 23.7931 5.96865 L 23.7931 5.00434 L 23.7931 5.00382 C 23.7992 5.00357 23.8054 5.00331 23.7931 5.00314 L 23.7931 4.03788 L 23.7931 0.00179623 C 23.7682 0.00145415 23.8176 0 23.7931 0 C 7.3459 0 0.729187 16.9121 0.729187 16.9121 L 1.08888 17.4483 C 1.17345 17.5741 3.20137 20.5654 6.99567 23.5917 C 13.3649 28.6715 19.6051 29.7642 23.7185 29.7865 L 23.7289 27.8559 C 18.2147 27.826 13.0101 25.8979 8.259 22.1249 C 5.59937 20.0127 3.83419 17.8802 3.09548 16.9127 Z M 47.6402 16.3833 C 47.5559 16.2576 45.5281 13.2663 41.7335 10.24 C 35.3646 5.16041 29.1244 4.06747 25.0108 4.04532 L 25.0003 5.97584 C 30.5147 6.00568 35.7193 7.93389 40.4703 11.7068 C 43.1298 13.8189 44.8949 15.9515 45.6337 16.919 C 43.9046 19.1775 36.4812 27.801 24.9363 27.8631 L 24.9363 28.8271 L 24.9363 28.8277 C 24.9301 28.828 24.924 28.8282 24.9363 28.8283 L 24.9363 29.7938 L 24.9363 33.8299 C 24.9608 33.8302 24.9117 33.8318 24.9363 33.8318 C 41.3836 33.8318 48 16.9196 48 16.9196 L 47.6402 16.3833 Z" stroke-linecap="round" />
</g>
</svg>