<svg width="200" height="36" viewBox="0 0 200 36" fill="none" xmlns="http://www.w3.org/2000/svg">
<path d="M179.479 18.4833C179.481 18.5277 179.482 18.5722 179.482 18.6171C179.482 20.5469 177.912 22.1171 175.982 22.1171C174.052 22.1171 172.482 20.5469 172.482 18.6171C172.482 16.6873 174.052 15.1171 175.982 15.1171C176.69 15.1171 177.348 15.3287 177.899 15.6911C177.865 15.8541 177.846 16.0229 177.846 16.1962C177.846 17.257 178.529 18.1562 179.479 18.4833ZM175.982 26.9061C171.404 26.9061 167.693 23.195 167.693 18.617C167.693 14.0391 171.404 10.3278 175.982 10.3278C180.56 10.3278 184.271 14.0391 184.271 18.617C184.271 23.195 180.56 26.9061 175.982 26.9061ZM181.061 18.617C181.061 18.5717 181.059 18.5269 181.058 18.4819C182.005 18.1538 182.687 17.2556 182.687 16.1961C182.687 14.8591 181.603 13.7755 180.267 13.7755C179.676 13.7755 179.135 13.9876 178.715 14.3392C177.925 13.8331 176.988 13.5382 175.982 13.5382C173.182 13.5382 170.904 15.8167 170.904 18.6171C170.904 21.4174 173.182 23.6957 175.982 23.6957C178.783 23.6956 181.061 21.4174 181.061 18.617ZM155.319 18.9127C157.039 16.6542 164.426 8.03083 175.913 7.96865V7.00434V7.00382C175.92 7.00357 175.926 7.00331 175.913 7.00314V6.03788V2.0018C175.889 2.00145 175.938 2 175.913 2C159.548 2 152.964 18.9121 152.964 18.9121L153.322 19.4483C153.406 19.5741 155.424 22.5654 159.2 25.5917C165.537 30.6715 171.746 31.7642 175.839 31.7865L175.85 29.8559C170.363 29.826 165.184 27.8979 160.457 24.1249C157.81 22.0127 156.054 19.8802 155.319 18.9127ZM199.642 18.3833C199.558 18.2576 197.54 15.2663 193.765 12.24C187.427 7.16041 181.218 6.06747 177.125 6.04532L177.115 7.97584C182.602 8.00568 187.78 9.93389 192.508 13.7068C195.154 15.8189 196.91 17.9515 197.645 18.919C195.925 21.1775 188.539 29.801 177.051 29.8631V30.8271V30.8277C177.045 30.828 177.039 30.8282 177.051 30.8283V31.7938V35.8299C177.075 35.8302 177.027 35.8318 177.051 35.8318C193.416 35.8318 200 18.9196 200 18.9196L199.642 18.3833Z" fill="black"/>
<path d="M7.668 9.552C7.668 8.376 7.584 7.392 7.416 6.6C8.232 6.504 9.06 6.456 9.9 6.456C10.308 6.456 10.512 6.636 10.512 6.996V26.94C10.512 27.444 10.608 27.804 10.8 28.02C10.992 28.236 11.34 28.344 11.844 28.344C11.868 28.968 11.7 29.46 11.34 29.82C11.004 30.18 10.512 30.36 9.864 30.36C8.856 30.36 8.208 29.988 7.92 29.244C7.248 29.988 6.324 30.36 5.148 30.36C2.7 30.36 1.476 29.208 1.476 26.904V9.66C1.476 9.156 1.368 8.808 1.152 8.616C0.96 8.4 0.612 8.292 0.108 8.292C0.108 6.924 0.876 6.24 2.412 6.24C3.684 6.24 4.32 7.068 4.32 8.724V26.688C4.32 27.552 4.752 27.984 5.616 27.984C6.504 27.984 7.188 27.564 7.668 26.724V9.552ZM16.3074 27.048C16.3074 28.224 16.3914 29.208 16.5594 30C15.8394 30.096 15.0594 30.144 14.2194 30.144C13.8114 30.144 13.6074 29.964 13.6074 29.604V15.348C13.6074 14.844 13.5114 14.484 13.3194 14.268C13.1514 14.052 12.8154 13.944 12.3114 13.944C12.2874 13.32 12.4434 12.84 12.7794 12.504C13.1394 12.168 13.7034 12 14.4714 12C15.2394 12 15.7914 12.372 16.1274 13.116C16.9194 12.372 17.7714 12 18.6834 12C19.6194 12 20.3634 12.3 20.9154 12.9C21.4914 13.5 21.7794 14.352 21.7794 15.456V27.012C21.7794 27.516 21.8634 27.876 22.0314 28.092C22.2234 28.308 22.5714 28.416 23.0754 28.416C23.0994 29.04 22.9314 29.52 22.5714 29.856C22.2354 30.192 21.7314 30.36 21.0594 30.36C20.3874 30.36 19.8834 30.156 19.5474 29.748C19.2354 29.34 19.0794 28.668 19.0794 27.732V15.672C19.0794 14.88 18.6714 14.484 17.8554 14.484C17.1834 14.484 16.6674 14.856 16.3074 15.6V27.048ZM26.1543 9.084C25.1223 9.084 24.6063 8.4 24.6063 7.032C24.6063 5.664 25.1223 4.98 26.1543 4.98C27.1863 4.98 27.7023 5.664 27.7023 7.032C27.7023 8.4 27.1863 9.084 26.1543 9.084ZM23.9223 12.36H27.5223V27.012C27.5223 27.516 27.6063 27.876 27.7743 28.092C27.9663 28.308 28.3143 28.416 28.8183 28.416C28.8423 29.04 28.6743 29.52 28.3143 29.856C27.9783 30.192 27.4743 30.36 26.8023 30.36C26.1303 30.36 25.6263 30.156 25.2903 29.748C24.9783 29.34 24.8223 28.668 24.8223 27.732V14.52L23.7063 14.7C23.5383 14.076 23.4543 13.536 23.4543 13.08C23.4543 12.6 23.6103 12.36 23.9223 12.36ZM31.0894 12C31.7614 12 32.2414 12.192 32.5294 12.576C32.8414 12.96 32.9974 13.824 32.9974 15.168C32.9974 16.488 33.1654 18.48 33.5014 21.144C33.8374 23.808 34.2094 25.992 34.6174 27.696C35.7214 22.776 36.2734 18.42 36.2734 14.628L36.2014 12.288C36.6574 12.192 37.0894 12.144 37.4974 12.144C37.9294 12.144 38.3134 12.192 38.6494 12.288C39.0094 12.384 39.1894 12.624 39.1894 13.008C39.1894 15.048 38.9494 17.688 38.4694 20.928C37.9894 24.168 37.4494 26.76 36.8494 28.704C36.5854 29.568 36.1534 30 35.5534 30H33.4294C32.8294 30 32.3974 29.568 32.1334 28.704C31.6054 26.88 31.1614 24.648 30.8014 22.008C30.4654 19.344 30.2974 17.124 30.2974 15.348C30.2974 14.844 30.2014 14.484 30.0094 14.268C29.8414 14.052 29.5054 13.944 29.0014 13.944C28.9774 13.344 29.1454 12.876 29.5054 12.54C29.8894 12.18 30.4174 12 31.0894 12ZM46.6335 15.852C46.6335 15.372 46.4895 15 46.2015 14.736C45.9135 14.448 45.5535 14.304 45.1215 14.304C44.2335 14.304 43.7895 14.676 43.7895 15.42V20.568L45.5175 19.272C46.2615 18.72 46.6335 17.58 46.6335 15.852ZM41.0895 26.796V15.528C41.0895 13.176 42.4695 12 45.2295 12C48.0135 12 49.4055 13.32 49.4055 15.96C49.4055 17.016 49.2135 17.988 48.8295 18.876C48.4455 19.764 47.9175 20.436 47.2455 20.892L43.7895 23.268V26.544C43.7895 27.552 44.2575 28.056 45.1935 28.056C46.1535 28.056 46.6335 27.492 46.6335 26.364V25.536L46.5255 23.844C46.8375 23.772 47.1495 23.736 47.4615 23.736C47.7975 23.736 48.1095 23.784 48.3975 23.88C48.9735 24.024 49.2615 24.3 49.2615 24.708V27.3C49.2615 28.26 48.8775 29.016 48.1095 29.568C47.3655 30.096 46.3695 30.36 45.1215 30.36C42.4335 30.36 41.0895 29.172 41.0895 26.796ZM54.4871 27.048C54.4871 28.2 54.5711 29.16 54.7391 29.928C54.0191 30.072 53.2391 30.144 52.3991 30.144C51.9911 30.144 51.7871 29.964 51.7871 29.604V15.348C51.7871 14.844 51.6911 14.484 51.4991 14.268C51.3311 14.052 50.9951 13.944 50.4911 13.944C50.4671 13.32 50.6231 12.84 50.9591 12.504C51.3191 12.168 51.8231 12 52.4711 12C53.4311 12 54.0311 12.48 54.2711 13.44C54.8711 12.48 55.7231 12 56.8271 12C58.7951 12 59.7791 12.948 59.7791 14.844V18.444C59.7791 18.852 59.4911 19.128 58.9151 19.272C58.6271 19.368 58.3151 19.416 57.9791 19.416C57.6671 19.416 57.3551 19.38 57.0431 19.308C57.1151 18.78 57.1511 18.216 57.1511 17.616V15.78C57.1511 14.988 56.7911 14.592 56.0711 14.592C55.7351 14.592 55.4231 14.748 55.1351 15.06C54.8471 15.372 54.6311 15.72 54.4871 16.104V27.048ZM63.821 26.436C63.821 27.516 64.301 28.056 65.261 28.056C66.245 28.056 66.737 27.468 66.737 26.292V24.816C66.737 23.928 66.425 23.292 65.801 22.908L62.633 21C61.697 20.424 61.229 19.452 61.229 18.084V15.564C61.229 14.508 61.565 13.656 62.237 13.008C62.933 12.336 63.941 12 65.261 12C66.605 12 67.625 12.276 68.321 12.828C69.017 13.38 69.365 14.136 69.365 15.096V17.364C69.365 17.772 69.077 18.048 68.501 18.192C68.213 18.288 67.901 18.336 67.565 18.336C67.253 18.336 66.941 18.3 66.629 18.228C66.701 17.7 66.737 17.136 66.737 16.536V15.996C66.737 14.868 66.281 14.304 65.369 14.304C64.409 14.304 63.929 14.808 63.929 15.816V17.472C63.929 18.312 64.193 18.876 64.721 19.164L67.889 21C68.921 21.576 69.437 22.56 69.437 23.952V26.652C69.437 27.804 69.089 28.716 68.393 29.388C67.721 30.036 66.725 30.36 65.405 30.36C64.085 30.36 63.053 30.096 62.309 29.568C61.565 29.04 61.193 28.284 61.193 27.3V24.924C61.193 24.516 61.481 24.24 62.057 24.096C62.345 24 62.645 23.952 62.957 23.952C63.293 23.952 63.617 23.988 63.929 24.06C63.857 24.588 63.821 25.152 63.821 25.752V26.436ZM71.4997 26.688V15.816C71.4997 14.616 71.8717 13.68 72.6157 13.008C73.3597 12.336 74.3677 12 75.6397 12C76.9117 12 77.8957 12.312 78.5917 12.936C79.3117 13.56 79.6717 14.472 79.6717 15.672V26.544C79.6717 27.744 79.2877 28.68 78.5197 29.352C77.7757 30.024 76.7677 30.36 75.4957 30.36C74.2237 30.36 73.2397 30.048 72.5437 29.424C71.8477 28.8 71.4997 27.888 71.4997 26.688ZM74.1997 15.672V26.688C74.1997 27.096 74.3317 27.444 74.5957 27.732C74.8597 27.996 75.1837 28.128 75.5677 28.128C75.9757 28.128 76.3117 27.996 76.5757 27.732C76.8397 27.444 76.9717 27.096 76.9717 26.688V15.672C76.9717 15.264 76.8397 14.928 76.5757 14.664C76.3117 14.376 75.9757 14.232 75.5677 14.232C75.1837 14.232 74.8597 14.376 74.5957 14.664C74.3317 14.928 74.1997 15.264 74.1997 15.672ZM91.4484 8.976C90.8004 8.976 90.1524 9.3 89.5044 9.948V26.616L89.6484 30C88.8324 30.12 88.0284 30.18 87.2364 30.18C86.8524 30.18 86.6604 29.976 86.6604 29.568V10.092C86.6604 9.564 86.5644 9.192 86.3724 8.976C86.1804 8.736 85.8324 8.616 85.3284 8.616C85.3044 7.992 85.4724 7.5 85.8324 7.14C86.1924 6.78 86.7684 6.6 87.5604 6.6C88.3524 6.6 88.9164 6.996 89.2524 7.788C90.1884 6.996 91.1484 6.6 92.1324 6.6C93.5964 6.6 94.6044 7.056 95.1564 7.968C96.1404 7.056 97.1724 6.6 98.2524 6.6C100.628 6.6 101.816 7.776 101.816 10.128V26.94C101.816 27.444 101.912 27.804 102.104 28.02C102.32 28.212 102.68 28.308 103.184 28.308C103.184 29.676 102.416 30.36 100.88 30.36C99.6084 30.36 98.9724 29.532 98.9724 27.876V10.344C98.9724 9.432 98.5044 8.976 97.5684 8.976C96.8244 8.976 96.2004 9.276 95.6964 9.876V26.616L95.8404 30C95.0244 30.12 94.2204 30.18 93.4284 30.18C93.0444 30.18 92.8524 29.976 92.8524 29.568V10.344C92.8524 9.432 92.3844 8.976 91.4484 8.976ZM107.573 12.36V27.012C107.573 27.516 107.657 27.876 107.825 28.092C108.017 28.308 108.365 28.416 108.869 28.416C108.893 29.04 108.725 29.52 108.365 29.856C108.029 30.192 107.525 30.36 106.853 30.36C106.181 30.36 105.677 30.156 105.341 29.748C105.029 29.34 104.873 28.668 104.873 27.732V14.52C104.513 14.52 104.141 14.58 103.757 14.7L103.505 12.9C103.505 12.54 103.661 12.36 103.973 12.36H107.573ZM106.277 5.304C107.981 5.832 108.833 6.252 108.833 6.564C108.833 6.636 108.797 6.732 108.725 6.852L106.637 9.912L105.989 10.992C105.005 10.632 104.513 10.32 104.513 10.056C104.513 9.984 104.537 9.912 104.585 9.84L105.809 6.888L106.277 5.304ZM118.844 27.228C118.844 28.236 118.46 29.016 117.692 29.568C116.924 30.096 115.94 30.36 114.74 30.36C113.564 30.36 112.616 30.06 111.896 29.46C111.2 28.836 110.852 28.008 110.852 26.976V14.52L109.736 14.7C109.568 14.076 109.484 13.536 109.484 13.08C109.484 12.6 109.64 12.36 109.952 12.36H110.924L111.428 8.976C111.524 8.448 111.968 8.184 112.76 8.184C113 8.184 113.264 8.208 113.552 8.256V12.36H116.684L118.556 12.18C118.676 12.804 118.736 13.356 118.736 13.836C118.736 14.292 118.58 14.52 118.268 14.52H113.552V26.544C113.552 27.048 113.672 27.444 113.912 27.732C114.176 27.996 114.5 28.128 114.884 28.128C115.772 28.128 116.216 27.54 116.216 26.364V23.736L116.108 22.044C116.42 21.972 116.732 21.936 117.044 21.936C117.38 21.936 117.692 21.984 117.98 22.08C118.556 22.224 118.844 22.5 118.844 22.908V27.228ZM122.271 9.084C121.239 9.084 120.723 8.4 120.723 7.032C120.723 5.664 121.239 4.98 122.271 4.98C123.303 4.98 123.819 5.664 123.819 7.032C123.819 8.4 123.303 9.084 122.271 9.084ZM120.039 12.36H123.639V27.012C123.639 27.516 123.723 27.876 123.891 28.092C124.083 28.308 124.431 28.416 124.935 28.416C124.959 29.04 124.791 29.52 124.431 29.856C124.095 30.192 123.591 30.36 122.919 30.36C122.247 30.36 121.743 30.156 121.407 29.748C121.095 29.34 120.939 28.668 120.939 27.732V14.52L119.823 14.7C119.655 14.076 119.571 13.536 119.571 13.08C119.571 12.6 119.727 12.36 120.039 12.36ZM133.291 26.364C134.251 26.796 134.731 27.42 134.731 28.236C134.731 28.5 134.623 28.716 134.407 28.884C133.447 29.868 131.995 30.36 130.051 30.36C127.603 30.36 126.379 29.016 126.379 26.328V15.528C126.379 13.176 127.771 12 130.555 12C131.779 12 132.739 12.276 133.435 12.828C134.131 13.38 134.479 14.124 134.479 15.06V18.012C134.479 18.42 134.191 18.696 133.615 18.84C133.327 18.936 133.015 18.984 132.679 18.984C132.367 18.984 132.055 18.948 131.743 18.876C131.815 18.348 131.851 17.784 131.851 17.184V15.996C131.851 15.396 131.743 14.964 131.527 14.7C131.311 14.436 130.939 14.304 130.411 14.304C129.523 14.304 129.079 14.676 129.079 15.42V25.896C129.079 26.64 129.199 27.18 129.439 27.516C129.679 27.852 130.075 28.02 130.627 28.02C131.203 28.02 131.755 27.84 132.283 27.48C132.811 27.12 133.147 26.748 133.291 26.364ZM136.468 26.688V15.816C136.468 14.616 136.84 13.68 137.584 13.008C138.328 12.336 139.336 12 140.608 12C141.88 12 142.864 12.312 143.56 12.936C144.28 13.56 144.64 14.472 144.64 15.672V26.544C144.64 27.744 144.256 28.68 143.488 29.352C142.744 30.024 141.736 30.36 140.464 30.36C139.192 30.36 138.208 30.048 137.512 29.424C136.816 28.8 136.468 27.888 136.468 26.688ZM139.168 15.672V26.688C139.168 27.096 139.3 27.444 139.564 27.732C139.828 27.996 140.152 28.128 140.536 28.128C140.944 28.128 141.28 27.996 141.544 27.732C141.808 27.444 141.94 27.096 141.94 26.688V15.672C141.94 15.264 141.808 14.928 141.544 14.664C141.28 14.376 140.944 14.232 140.536 14.232C140.152 14.232 139.828 14.376 139.564 14.664C139.3 14.928 139.168 15.264 139.168 15.672Z" fill="black"/>
</svg>
